<?xml version="1.0" encoding="UTF-8"?>
<svg width="32px" height="18px" viewBox="0 0 32 18" version="1.1" xmlns="http://www.w3.org/2000/svg" xmlns:xlink="http://www.w3.org/1999/xlink">
    <!-- Generator: Sketch 45 (43475) - http://www.bohemiancoding.com/sketch -->
    <title>arrow-left</title>
    <desc>Created with Sketch.</desc>
    <defs></defs>
    <g id="Page-1" stroke="none" stroke-width="1" fill="none" fill-rule="evenodd">
        <g id="arrow-left" transform="translate(16.000000, 9.000000) rotate(-90.000000) translate(-16.000000, -9.000000) translate(7.000000, -7.000000)" fill-rule="nonzero" fill="#171D27">
            <g id="arrow-point-to-right" transform="translate(9.000000, 16.000000) scale(-1, 1) translate(-9.000000, -16.000000) ">
                <path d="M17.3523845,17.2019001 L3.77482194,30.6618545 C2.91112496,31.5185123 1.51078835,31.5185123 0.647510672,30.6618545 C-0.215836891,29.8059588 -0.215836891,28.4177782 0.647510672,27.5619518 L12.6615574,15.6519488 L0.647860092,3.74236142 C-0.21548747,2.8861193 -0.21548747,1.49807731 0.647860092,0.642181593 C1.51120765,-0.214060531 2.91147438,-0.214060531 3.77517136,0.642181593 L17.3527339,14.1023438 C17.7844077,14.5304995 18,15.0910509 18,15.6518795 C18,16.2129851 17.7839884,16.7739522 17.3523845,17.2019001 Z" id="Path"></path>
            </g>
        </g>
    </g>
</svg>