<?xml version="1.0" encoding="UTF-8" standalone="no" ?>
<!DOCTYPE svg PUBLIC "-//W3C//DTD SVG 1.1//EN" "http://www.w3.org/Graphics/SVG/1.1/DTD/svg11.dtd">
<svg xmlns="http://www.w3.org/2000/svg" xmlns:xlink="http://www.w3.org/1999/xlink" version="1.1" width="44" height="44" viewBox="228 227 44 44" xml:space="preserve">
<desc>Created with Fabric.js 4.6.0</desc>
<defs>
</defs>
<g transform="matrix(1 0 0 1 243.5 249.65)" id="W9YXztRPzeX53cvyfGAaY"  >
<path style="stroke: none; stroke-width: 1; stroke-dasharray: none; stroke-linecap: butt; stroke-dashoffset: 0; stroke-linejoin: miter; stroke-miterlimit: 4; fill: rgb(255,255,255); fill-rule: evenodd; opacity: 1;" vector-effect="non-scaling-stroke"  transform=" translate(-9, -15.65)" d="M 17.3523845 17.2019001 L 3.77482194 30.6618545 C 2.91112496 31.5185123 1.51078835 31.5185123 0.647510672 30.6618545 C -0.215836891 29.8059588 -0.215836891 28.4177782 0.647510672 27.5619518 L 12.6615574 15.6519488 L 0.647860092 3.74236142 C -0.21548747 2.8861193 -0.21548747 1.49807731 0.647860092 0.642181593 C 1.51120765 -0.214060531 2.91147438 -0.214060531 3.77517136 0.642181593 L 17.3527339 14.1023438 C 17.7844077 14.5304995 18 15.0910509 18 15.6518795 C 18 16.2129851 17.7839884 16.7739522 17.3523845 17.2019001 Z" stroke-linecap="round" />
</g>
<g transform="matrix(1 0 0 1 256.5 249.65)" id="FLRMreggRPo2fwdIwByo4"  >
<path style="stroke: none; stroke-width: 1; stroke-dasharray: none; stroke-linecap: butt; stroke-dashoffset: 0; stroke-linejoin: miter; stroke-miterlimit: 4; fill: rgb(255,255,255); fill-rule: evenodd; opacity: 1;" vector-effect="non-scaling-stroke"  transform=" translate(-9, -15.65)" d="M 17.3523845 17.2019001 L 3.77482194 30.6618545 C 2.91112496 31.5185123 1.51078835 31.5185123 0.647510672 30.6618545 C -0.215836891 29.8059588 -0.215836891 28.4177782 0.647510672 27.5619518 L 12.6615574 15.6519488 L 0.647860092 3.74236142 C -0.21548747 2.8861193 -0.21548747 1.49807731 0.647860092 0.642181593 C 1.51120765 -0.214060531 2.91147438 -0.214060531 3.77517136 0.642181593 L 17.3527339 14.1023438 C 17.7844077 14.5304995 18 15.0910509 18 15.6518795 C 18 16.2129851 17.7839884 16.7739522 17.3523845 17.2019001 Z" stroke-linecap="round" />
</g>
</svg>